<svg xmlns="http://www.w3.org/2000/svg" viewBox="0 0 400 480" width="64" height="64">
  <defs>
    <linearGradient id="c" x1="0%" y1="0%" x2="100%" y2="100%">
      <stop offset="0%" stop-color="#0A2540"/>
      <stop offset="45%" stop-color="#0E5C8B"/>
      <stop offset="100%" stop-color="#18A8A0"/>
    </linearGradient>
    <linearGradient id="j" x1="0%" y1="100%" x2="0%" y2="0%">
      <stop offset="0%" stop-color="#0A2540"/>
      <stop offset="100%" stop-color="#18A8A0"/>
    </linearGradient>
    <linearGradient id="p" x1="0%" y1="0%" x2="100%" y2="100%">
      <stop offset="0%" stop-color="#18A8A0"/>
      <stop offset="100%" stop-color="#3DDC97"/>
    </linearGradient>
    <linearGradient id="a" x1="0%" y1="100%" x2="100%" y2="0%">
      <stop offset="0%" stop-color="#18A8A0"/>
      <stop offset="100%" stop-color="#7CF0C0"/>
    </linearGradient>
  </defs>
  <path d="M 200,345 A 145,145 0 0,1 55,200 A 145,145 0 0,1 200,55 A 145,145 0 0,1 345,200 A 145,145 0 0,1 200,345" fill="none" stroke="url(#c)" stroke-width="3" stroke-linecap="round"/>
  <path d="M 175,140 Q 218,108 252,82" fill="none" stroke="url(#a)" stroke-width="3.5" stroke-linecap="round"/>
  <path d="M 240,92 L 274,60 L 258,98 Z" fill="#7CF0C0"/>
  <path d="M 152,243 Q 152,265 175,265 Q 198,265 198,243 L 198,140" fill="none" stroke="url(#j)" stroke-width="9" stroke-linecap="round" stroke-linejoin="round"/>
  <path d="M 218,278 L 218,138 Q 268,138 268,176 Q 268,214 218,214" fill="none" stroke="url(#p)" stroke-width="9" stroke-linecap="round" stroke-linejoin="round"/>
  <path d="M 222,270 L 236,286 L 268,252" fill="none" stroke="#18A8A0" stroke-width="5.5" stroke-linecap="round" stroke-linejoin="round"/>
</svg>
